Coordinates
version=1
nRows=17
nColumns=38
inDegrees=yes

Units are S.I. units (second, meters, Newtons, ...)
Angles are in degrees.

endheader
time	pelvis_tilt	pelvis_list	pelvis_rotation	pelvis_tx	pelvis_ty	pelvis_tz	hip_flexion_r	hip_adduction_r	hip_rotation_r	knee_angle_r	ankle_angle_r	subtalar_angle_r	mtp_angle_r	hip_flexion_l	hip_adduction_l	hip_rotation_l	knee_angle_l	ankle_angle_l	subtalar_angle_l	mtp_angle_l	lumbar_extension	lumbar_bending	lumbar_rotation	arm_flex_r	arm_add_r	arm_rot_r	elbow_flex_r	pro_sup_r	wrist_flex_r	wrist_dev_r	arm_flex_l	arm_add_l	arm_rot_l	elbow_flex_l	pro_sup_l	wrist_flex_l	wrist_dev_l
      1.68000000	      0.95132437	      3.68110886	      7.45922830	     -0.14736592	      0.89823868	     -0.23167828	     27.92569515	     -2.82118967	    -10.64830389	    -15.64986926	      0.88514651	      0.33449700	      9.08922447	    -16.39527211	      5.54828790	      7.54064001	    -16.24471752	     14.21004945	      8.14658872	      7.65883141	     -8.09892539	     -2.34729913	     -8.79429698	     -8.59786509	    -15.97339652	     10.09261515	     19.48581655	     86.51662706	      0.00000000	      0.00000000	      4.40063958	    -19.83886537	     15.06210537	     32.02903547	     86.51662706	      0.00000000	      0.00000000
      1.69000000	      0.87855792	      3.47919619	      7.46671912	     -0.13305627	      0.89690227	     -0.23174040	     27.83023907	     -2.45059911	    -10.24681620	    -16.78491890	     -0.19169142	     -1.41717720	      9.10680005	    -16.68183280	      5.17336394	      7.08735421	    -17.16794103	     13.45878193	      8.84729766	      9.29130432	     -7.74190116	     -2.05048775	     -8.81533245	     -8.69776469	    -16.05663208	     10.18379489	     19.52308073	     86.51662706	      0.00000000	      0.00000000	      3.99481478	    -19.63412456	     14.99235292	     31.78569469	     86.51662706	      0.00000000	      0.00000000
      1.70000000	      0.77628200	      3.18083048	      7.43697539	     -0.11859868	      0.89557881	     -0.23171547	     27.76319692	     -1.96159504	     -9.83758289	    -17.85447941	     -1.54578067	     -3.15761996	      9.09728157	    -16.82475929	      4.71041830	      6.57535442	    -18.24414295	     12.50322010	      9.49994756	     11.21400605	     -7.31719072	     -1.64589836	     -8.76954662	     -8.81683578	    -16.16321957	     10.25188593	     19.58945345	     86.51662706	      0.00000000	      0.00000000	      3.54924388	    -19.39021960	     14.92451149	     31.49098855	     86.51662706	      0.00000000	      0.00000000
      1.71000000	      0.66522581	      2.76646074	      7.36019728	     -0.10407573	      0.89446080	     -0.23154292	     27.75293511	     -1.35397363	     -9.42424953	    -18.87959121	     -3.08058957	     -4.79326365	      9.05265942	    -16.81455358	      4.14741456	      6.00664420	    -19.49716600	     11.29344078	     10.07749073	     13.39453157	     -6.85369220	     -1.11302401	     -8.64805452	     -8.93737446	    -16.29571067	     10.29613013	     19.68017321	     86.51662706	      0.00000000	      0.00000000	      3.08085185	    -19.10293430	     14.86079949	     31.14034059	     86.51662706	      0.00000000	      0.00000000
      1.72000000	      0.55652175	      2.22754016	      7.23284753	     -0.08960186	      0.89376144	     -0.23122913	     27.79754918	     -0.63127796	     -8.99933869	    -19.91371080	     -4.65910302	     -6.25508865	      8.96869767	    -16.64346050	      3.48377961	      5.38430861	    -20.94664052	      9.77379425	     10.56354491	     15.77074400	     -6.37919465	     -0.44479589	     -8.45142864	     -9.04201964	    -16.45631034	     10.31666504	     19.79249572	     86.51662706	      0.00000000	      0.00000000	      2.60020119	    -18.77214383	     14.80395527	     30.73209002	     86.51662706	      0.00000000	      0.00000000
      1.73000000	      0.45335729	      1.57406725	      7.05746194	     -0.07523479	      0.89355686	     -0.23085986	     27.86913459	      0.19967321	     -8.55465653	    -21.00415206	     -6.12689960	     -7.50062935	      8.84278501	    -16.30660602	      2.73258324	      4.71511283	    -22.60550436	      7.89365515	     10.95287097	     18.25252747	     -5.91581291	      0.34723455	     -8.18921089	     -9.11695743	    -16.64550110	     10.31413385	     19.92653515	     86.51662706	      0.00000000	      0.00000000	      2.11160662	    -18.40314176	     14.75797028	     30.26778131	     86.51662706	      0.00000000	      0.00000000
      1.74000000	      0.35954906	      0.83407395	      6.83968202	     -0.06091927	      0.89372451	     -0.23050805	     27.93004413	      1.12413885	     -8.09044142	    -22.15716598	     -7.33874853	     -8.51218437	      8.67188132	    -15.80306809	      1.91627536	      4.01319144	    -24.47878919	      5.62168663	     11.24908964	     20.72765127	     -5.47915633	      1.23323836	     -7.87738542	     -9.15344915	    -16.86074086	     10.28935198	     20.08560238	     86.51662706	      0.00000000	      0.00000000	      1.61566096	    -18.00658695	     14.72870213	     29.75187137	     86.51662706	      0.00000000	      0.00000000
      1.75000000	      0.28092870	      0.04602166	      6.58599558	     -0.04658506	      0.89404401	     -0.23015598	     27.94319173	      2.11662659	     -7.61871825	    -23.32986749	     -8.18226174	     -9.29211460	      8.45163469	    -15.13510984	      1.05907108	      3.30359365	    -26.56339583	      2.96112625	     11.45988036	     23.07164709	     -5.08069547	      2.17148363	     -7.53494237	     -9.14758007	    -17.09589919	     10.24314903	     20.27587524	     86.51662706	      0.00000000	      0.00000000	      1.11315024	    -17.59688107	     14.72422609	     29.19090788	     86.51662706	      0.00000000	      0.00000000
      1.76000000	      0.21997517	     -0.75068851	      6.30555656	     -0.03227158	      0.89436416	     -0.22973646	     27.87364208	      3.14483677	     -7.16019503	    -24.45004859	     -8.59399485	     -9.85650667	      8.17689709	    -14.30653878	      0.18118206	      2.62343076	    -28.84915061	     -0.03739040	     11.59074699	     25.16088794	     -4.73106685	      3.11836682	     -7.18081880	     -9.09893516	    -17.34188169	     10.17644194	     20.50538188	     86.51662706	      0.00000000	      0.00000000	      0.60880415	    -17.18942151	     14.75481454	     28.59236025	     86.51662706	      0.00000000	      0.00000000
      1.77000000	      0.17432196	     -1.52430209	      6.01458902	     -0.01812033	      0.89468108	     -0.22921871	     27.69032418	      4.17615395	     -6.73755091	    -25.44545003	     -8.56525931	    -10.22869448	      7.84328939	    -13.32213658	     -0.70196161	      2.01868134	    -31.32106183	     -3.26939947	     11.63913512	     26.88728157	     -4.44184204	      4.03794395	     -6.83196838	     -9.00919459	    -17.58839545	     10.09049722	     20.78246630	     86.51662706	      0.00000000	      0.00000000	      0.11341070	    -16.79771837	     14.83246252	     27.96338374	     86.51662706	      0.00000000	      0.00000000
      1.78000000	      0.14154307	     -2.25633583	      5.73832122	     -0.00427766	      0.89508276	     -0.22862789	     27.37055435	      5.18076279	     -6.36969688	    -26.26503556	     -8.13720931	    -10.43397912	      7.44922192	    -12.18819580	     -1.57642954	      1.53663052	    -33.96137122	     -6.58004037	     11.59100606	     28.17231234	     -4.22470813	      4.90721982	     -6.50252378	     -8.88132859	    -17.82627079	      9.98725268	     21.11407442	     86.51662706	      0.00000000	      0.00000000	     -0.35651579	    -16.43141709	     14.96992134	     27.30983803	     86.51662706	      0.00000000	      0.00000000
      1.79000000	      0.12396701	     -2.94065470	      5.50757100	      0.00918025	      0.89565316	     -0.22801720	     26.90325820	      6.13159167	     -6.07021166	    -26.88637858	     -7.38726884	    -10.49623469	      6.99775582	    -10.91267507	     -2.42605041	      1.21633976	    -36.74930708	     -9.77912671	     11.42168738	     28.97782110	     -4.08883104	      5.71561648	     -6.20349273	     -8.71942592	    -18.04942705	      9.86954530	     21.50430341	     86.51662706	      0.00000000	      0.00000000	     -0.78131111	    -16.09581616	     15.17926426	     26.63584167	     86.51662706	      0.00000000	      0.00000000
      1.80000000	      0.12882970	     -3.57567376	      5.35153967	      0.02225849	      0.89643214	     -0.22745901	     26.28890610	      7.00412276	     -5.84948756	    -27.31154144	     -6.41106687	    -10.43625124	      6.49773518	     -9.50465100	     -3.23120154	      1.08077541	    -39.65770571	    -12.66679175	     11.10172533	     29.31114285	     -4.03813020	      6.45970165	     -5.94243635	     -8.52872796	    -18.25566325	      9.74113132	     21.95360080	     86.51662706	      0.00000000	      0.00000000	     -1.14195836	    -15.79285177	     15.47009701	     25.94401392	     86.51662706	      0.00000000	      0.00000000
      1.81000000	      0.16378433	     -4.15552772	      5.29065965	      0.03500652	      0.89742666	     -0.22704771	     25.53732203	      7.77696132	     -5.71759768	    -27.55696819	     -5.30471022	    -10.27128179	      5.96376693	     -7.97426445	     -3.97002881	      1.13330549	    -42.64798969	    -15.06530620	     10.60669046	     29.22314455	     -4.06994803	      7.13621834	     -5.72294496	     -8.31546350	    -18.44598627	      9.60646085	     22.45876985	     86.51662706	      0.00000000	      0.00000000	     -1.42386651	    -15.52290565	     15.84763427	     25.23636259	     86.51662706	      0.00000000	      0.00000000
      1.82000000	      0.23131471	     -4.66727165	      5.33273461	      0.04746799	      0.89862720	     -0.22686563	     24.66479512	      8.43258423	     -5.68521934	    -27.64319955	     -4.15113877	    -10.01534383	      5.41495452	     -6.33348374	     -4.61949736	      1.35896473	    -45.66622989	    -16.84986530	      9.92813819	     28.79925676	     -4.17554532	      7.73695141	     -5.54408070	     -8.08639622	    -18.62287520	      9.47025031	     23.01366291	     86.51662706	      0.00000000	      0.00000000	     -1.61974768	    -15.28646632	     16.31097063	     24.51557884	     86.51662706	      0.00000000	      0.00000000
      1.83000000	      0.32659077	     -5.09495765	      5.47309797	      0.05966072	      0.90000863	     -0.22692628	     23.69131752	      8.95848648	     -5.76168182	    -27.58852265	     -3.01243316	     -9.67996579	      4.87265067	     -4.59657429	     -5.15523181	      1.72927949	    -48.64273836	    -17.96994477	      9.08201741	     28.14540168	     -4.34180722	      8.24767992	     -5.40012871	     -7.84827246	    -18.78834905	      9.33695451	     23.61025395	     86.51662706	      0.00000000	      0.00000000	     -1.73120406	    -15.08485094	     16.85192656	     23.78637659	     86.51662706	      0.00000000	      0.00000000
      1.84000000	      0.43979555	     -5.42513492	      5.69701909	      0.07159370	      0.90152707	     -0.22716551	     22.63823147	      9.34893506	     -5.95077848	    -27.40768960	     -1.92806739	     -9.27522914	      4.35773794	     -2.78017350	     -5.55261147	      2.20903070	    -51.49680922	    -18.45417915	      8.11131595	     27.37208232	     -4.55319317	      8.65114236	     -5.28099543	     -7.60740905	    -18.94273007	      9.21026409	     24.23973460	     86.51662706	      0.00000000	      0.00000000	     -1.76890047	    -14.91977129	     17.45478569	     23.05649941	     86.51662706	      0.00000000	      0.00000000
